<?xml version="1.0" standalone="no"?>
<!DOCTYPE svg PUBLIC "-//W3C//DTD SVG 20010904//EN"
 "http://www.w3.org/TR/2001/REC-SVG-20010904/DTD/svg10.dtd">
<svg version="1.0" xmlns="http://www.w3.org/2000/svg"
 width="85.000000pt" height="85.000000pt" viewBox="0 0 85.000000 85.000000"
 preserveAspectRatio="xMidYMid meet">
<metadata>
Created by potrace 1.11, written by Peter Selinger 2001-2013
</metadata>
<g transform="translate(0.000000,85.000000) scale(0.100000,-0.100000)"
fill="#000000" stroke="none">
<path d="M395 830 c-7 -23 10 -60 29 -60 16 0 29 41 20 64 -9 22 -41 20 -49
-4z"/>
<path d="M263 743 c-10 -3 -13 -50 -13 -186 0 -196 -1 -192 61 -264 30 -35 78
-63 110 -63 37 0 92 39 132 92 l37 51 0 182 c0 158 -2 184 -16 189 -19 7 -293
7 -311 -1z m122 -55 c6 -3 10 -37 9 -75 l-1 -68 -45 -3 -46 -3 1 73 c0 56 4
74 16 79 19 7 52 6 66 -3z m151 -71 l1 -77 -44 0 c-47 0 -44 -7 -46 91 -1 59
4 66 50 64 l38 -1 1 -77z m-145 -144 c1 -21 1 -116 0 -157 l-1 -29 -26 24
c-42 39 -62 81 -63 132 l0 47 44 0 c36 0 45 -4 46 -17z m145 -38 c-2 -44 -8
-62 -33 -92 -50 -63 -58 -56 -56 44 1 49 2 91 2 96 1 4 21 7 45 7 l44 0 -2
-55z"/>
<path d="M404 198 c-11 -18 -15 -171 -5 -187 5 -8 16 -11 29 -7 18 6 20 14 18
94 -1 84 -8 112 -26 112 -5 0 -12 -5 -16 -12z"/>
</g>
</svg>
